<svg xmlns="http://www.w3.org/2000/svg" width="1200" height="760" viewBox="0 0 1200 760">
  <defs>
    <linearGradient id="bg" x1="0" y1="0" x2="1" y2="1">
      <stop offset="0%" stop-color="#071E36"/>
      <stop offset="62%" stop-color="#0B2D50"/>
      <stop offset="100%" stop-color="#0D3D6B"/>
    </linearGradient>
    <pattern id="grid" width="46" height="46" patternUnits="userSpaceOnUse">
      <path d="M 46 0 L 0 0 0 46" fill="none" stroke="#7ABAFF" stroke-opacity="0.075" stroke-width="1"/>
    </pattern>
    <filter id="glow" x="-50%" y="-50%" width="200%" height="200%">
      <feGaussianBlur stdDeviation="8" result="blur"/>
      <feMerge><feMergeNode in="blur"/><feMergeNode in="SourceGraphic"/></feMerge>
    </filter>
  </defs>
  <rect width="100%" height="100%" fill="url(#bg)"/>
  <rect width="100%" height="100%" fill="url(#grid)"/>
  <circle cx="88%" cy="16%" r="26%" fill="none" stroke="#7ABAFF" stroke-opacity="0.10" stroke-width="2"/>
  <circle cx="88%" cy="16%" r="19%" fill="none" stroke="#7ABAFF" stroke-opacity="0.055" stroke-width="1"/>
  <path d="M 4% 90% H 36%" stroke="#7ABAFF" stroke-opacity="0.26" stroke-width="2"/>
  <path d="M 4% 90% v -14" stroke="#7ABAFF" stroke-opacity="0.26" stroke-width="2"/>

  <g transform="translate(144 116)">
    <path d="M86 432 L440 120 L806 432 L440 560 Z" fill="#FFFFFF" fill-opacity="0.025" stroke="#EAF4FF" stroke-opacity="0.50" stroke-width="4"/>
    <g stroke="#7ABAFF" stroke-opacity="0.46" stroke-width="3">
      <path d="M154 372 L440 120 M226 410 L482 157 M305 447 L529 198 M389 486 L579 240 M478 519 L635 288 M568 487 L694 338 M651 458 L752 386"/>
      <path d="M154 372 L508 500 M224 310 L580 438 M294 248 L650 376 M365 185 L722 313"/>
    </g>
    <path d="M673 132 H816 V278" fill="none" stroke="#1470D3" stroke-width="12"/>
    <path d="M698 157 H791 V253" fill="none" stroke="#7ABAFF" stroke-opacity="0.7" stroke-width="4"/>
  </g>

</svg>